<svg enable-background="new 0 0 40 40" viewBox="0 0 40 40" xmlns="http://www.w3.org/2000/svg"><path d="m20 0c4.6 0 9.1 1.6 12.7 4.5s6 7 6.9 11.6c.9 4.5.2 9.2-2 13.3s-5.7 7.3-10 9c-4.3 1.8-9 2-13.5.7s-8.3-4.2-10.8-8-3.7-8.5-3.2-13.1 2.5-8.9 5.8-12.2c1.8-1.8 4-3.3 6.5-4.3s5-1.5 7.6-1.5z" fill="#f3f3f3"/><path d="m20 1c4.4 0 8.7 1.5 12.1 4.3s5.7 6.7 6.6 11 .2 8.8-1.9 12.7-5.4 6.9-9.5 8.6c-2.3 1-4.8 1.4-7.3 1.4-1.9 0-3.7-.3-5.5-.8-4.2-1.3-7.8-4-10.3-7.6-2.4-3.6-3.5-8.1-3.1-12.4.4-4.4 2.4-8.5 5.5-11.6 1.8-1.8 3.8-3.2 6.2-4.1 2.3-1 4.7-1.5 7.2-1.5zm0-1c-2.6 0-5.2.5-7.6 1.5-2.5 1-4.7 2.5-6.5 4.4-3.3 3.2-5.3 7.5-5.8 12.1s.7 9.2 3.3 13.1c2.6 3.8 6.4 6.7 10.8 8 1.9.6 3.8.9 5.8.9 2.6 0 5.2-.5 7.6-1.5 4.3-1.8 7.8-5 10-9 2.2-4.1 2.9-8.8 2-13.3s-3.3-8.6-6.9-11.6-8.1-4.6-12.7-4.6z" opacity=".02"/><g fill="#363a69"><path d="m12.7 7.1 2.2 6.6 2.3 7.1 4.8-6.1-9.3-7.7z"/><path d="m16.6 27.8 8.6-5.3-7.9-1z"/><path d="m16.7 22.3-1.5 2.7-4.4 8 4.9-1.5.3-3z"/><path d="m28.3 16.1-1 2.8 1.9 1.7z"/><path d="m17.5 21.1 8 1-3.3-7z"/><path d="m24 17.7 1.8 4.1 2.2-6.1z"/></g></svg>